HIERARCHY
ROOT Hips
{
	OFFSET 0.000000 88.474243 0.000000
	CHANNELS 6 Xposition Yposition Zposition Zrotation Yrotation Xrotation 
	JOINT Hips_Spine
	{
		OFFSET 0.000000 0.000000 0.000000
		CHANNELS 3 Zrotation Yrotation Xrotation
		JOINT Spine
		{
			OFFSET 0.005100 8.711998 -0.691000
			CHANNELS 3 Zrotation Yrotation Xrotation
			JOINT Spine1
			{
				OFFSET -0.009200 8.660301 -1.275000
				CHANNELS 3 Zrotation Yrotation Xrotation
				JOINT Spine2
				{
					OFFSET 0.006300 9.852501 -1.857000
					CHANNELS 3 Zrotation Yrotation Xrotation
					JOINT Spine2_Neck
					{
						OFFSET 0.000000 0.000000 0.000000
						CHANNELS 3 Zrotation Yrotation Xrotation
						JOINT Neck
						{
							OFFSET 0.016300 11.420799 -0.263300
							CHANNELS 3 Zrotation Yrotation Xrotation
							End Site #name: Head
							{
								OFFSET -0.019200 9.262405 2.362500
							}
						}
					}
					JOINT Spine2_LeftShoulder
					{
						OFFSET 0.000000 0.000000 0.000000
						CHANNELS 3 Zrotation Yrotation Xrotation
						JOINT LeftShoulder
						{
							OFFSET 5.616900 6.732201 -0.345700
							CHANNELS 3 Zrotation Yrotation Xrotation
							JOINT LeftArm
							{
								OFFSET 10.664888 -0.183372 -2.440700
								CHANNELS 3 Zrotation Yrotation Xrotation
								JOINT LeftForeArm
								{
									OFFSET 27.459126 0.000000 0.000000
									CHANNELS 3 Zrotation Yrotation Xrotation
									End Site #name: LeftHand
									{
										OFFSET 21.306858 0.000000 0.000000
									}
								}
							}
						}
					}
					JOINT Spine2_RightShoulder
					{
						OFFSET 0.000000 0.000000 0.000000
						CHANNELS 3 Zrotation Yrotation Xrotation
						JOINT RightShoulder
						{
							OFFSET -5.580300 6.737503 -0.344400
							CHANNELS 3 Zrotation Yrotation Xrotation
							JOINT RightArm
							{
								OFFSET -10.679335 -0.188484 -2.383900
								CHANNELS 3 Zrotation Yrotation Xrotation
								JOINT RightForeArm
								{
									OFFSET -27.503529 0.000000 0.000000
									CHANNELS 3 Zrotation Yrotation Xrotation
									End Site #name: RightHand
									{
										OFFSET -21.306808 0.000000 0.000000
									}
								}
							}
						}
					}
				}
			}
		}
	}
	JOINT Hips_LeftUpLeg
	{
		OFFSET 0.000000 0.000000 0.000000
		CHANNELS 3 Zrotation Yrotation Xrotation
		JOINT LeftUpLeg
		{
			OFFSET 6.857700 -6.739601 0.312100
			CHANNELS 3 Zrotation Yrotation Xrotation
			JOINT LeftLeg
			{
				OFFSET -0.367590 -34.731552 -4.572400
				CHANNELS 3 Zrotation Yrotation Xrotation
				End Site #name: LeftFoot
				{
					OFFSET 0.367590 -34.656704 -6.067400
				}
			}
		}
	}
	JOINT Hips_RightUpLeg
	{
		OFFSET 0.000000 0.000000 0.000000
		CHANNELS 3 Zrotation Yrotation Xrotation
		JOINT RightUpLeg
		{
			OFFSET -6.876100 -6.733299 0.301000
			CHANNELS 3 Zrotation Yrotation Xrotation
			JOINT RightLeg
			{
				OFFSET 0.347353 -34.795158 -4.515900
				CHANNELS 3 Zrotation Yrotation Xrotation
				End Site #name: RightFoot
				{
					OFFSET -0.347353 -34.589367 -6.070300
				}
			}
		}
	}
}
MOTION
Frames: 12
Frame Time: 0.041667
-0.012708 -0.029163 -0.154659 -145.224610 83.173175 -144.703805 -0.000000 -0.000000 0.000000 -3.415300 1.752278 1.517741 3.263853 0.803443 2.307390 0.000000 0.000000 0.000000 3.800294 0.234651 -0.340514 -2.774264 -6.029448 -2.577116 2.160285 1.242394 1.086597 -7.920561 -11.588823 2.384941 -83.540373 7.305663 -6.678736 0.107082 -12.534860 1.317303 2.949189 0.282840 0.595128 13.400641 14.218146 5.754969 38.532073 16.865783 -20.799018 -13.422644 75.466440 -8.390056 0.000000 -0.000000 -0.000000 -2.937730 14.613732 -20.207430 -14.003738 -40.917314 8.705709 0.000000 0.000000 -0.000000 -0.869643 -11.152620 -10.086488 2.271194 -1.182241 8.938770 
-0.011949 -0.257226 -0.104016 -137.669500 84.774174 -135.695574 -0.000000 -0.000000 0.000000 -6.031572 2.643459 3.589377 4.699299 0.912335 1.394565 0.000000 0.000000 0.000000 4.346909 0.388168 1.150644 -2.181067 -7.673037 -4.317393 3.209447 0.785935 -0.428742 -8.920541 -11.179698 2.114666 -84.291391 -4.725679 -17.229345 -2.144971 -1.098802 1.384935 4.297527 0.606824 2.273464 15.710877 14.688863 4.088553 39.708903 20.092245 -24.466321 -6.904811 75.385319 -2.067486 0.000000 -0.000000 -0.000000 -2.110536 15.348738 -21.178847 -12.663284 -39.366697 6.905132 0.000000 0.000000 -0.000000 -2.739407 -8.394862 -8.356736 7.641645 6.670257 6.339649 
-0.013625 -0.426494 -0.117539 -122.073970 85.056550 -119.833812 -0.000000 -0.000000 -0.000000 -5.421536 2.068126 1.996532 5.174724 0.658361 1.403928 0.000000 0.000000 0.000000 4.956712 -0.156405 1.649092 -1.953162 -9.682725 -4.451445 3.249297 0.590084 -0.259453 -10.113216 -7.251421 0.828828 -83.345851 -5.614014 -20.457484 -1.838067 11.641736 0.932315 4.692409 0.456108 1.902668 17.157448 15.455369 4.252347 40.898815 19.234242 -25.336782 -11.510063 83.487656 -6.369148 0.000000 -0.000000 -0.000000 -0.163522 17.589419 -21.204016 -10.882393 -32.140916 8.233850 0.000000 0.000000 -0.000000 -3.939790 -14.116550 -6.103955 9.891468 10.190880 4.309191 
-0.059366 -0.591171 -0.158496 -102.995951 84.331904 -101.299445 -0.000000 -0.000000 -0.000000 -3.019271 0.767930 0.957404 4.903364 0.235925 1.512460 0.000000 0.000000 0.000000 4.848014 -0.435459 1.879422 -1.705621 -9.955868 -5.619349 3.001112 0.305227 -0.248580 -11.747592 -1.121749 -2.521068 -84.490169 -8.970462 -22.449206 -2.111838 18.792966 0.618096 4.623865 0.134610 1.932739 16.121997 14.856193 4.050811 40.899951 20.070778 -28.161116 -165.713734 86.930964 -160.752898 0.000000 -0.000000 -0.000000 0.763348 19.078764 -20.288078 -8.537941 -26.787465 8.459565 0.000000 0.000000 -0.000000 -4.684750 -20.762909 -4.204311 10.704890 12.428619 3.813972 
-0.089330 -0.694389 -0.172873 -87.156399 84.070837 -85.603762 -0.000000 -0.000000 -0.000000 -0.338112 0.434268 0.045411 4.536106 0.018676 1.705450 0.000000 0.000000 0.000000 4.460030 -0.471913 2.202547 -1.550413 -10.577612 -6.267239 2.704910 0.159663 0.037130 -12.268407 1.874485 -4.295634 -84.039199 -12.585157 -21.970532 -2.340797 22.222460 0.529312 4.243494 -0.121856 2.110422 15.191229 11.628437 4.387350 42.409932 21.029504 -28.728957 -175.809341 82.501564 -171.039074 0.000000 -0.000000 -0.000000 1.434526 20.194803 -19.400722 -7.287689 -24.107086 8.106322 0.000000 0.000000 -0.000000 -5.177962 -25.805808 -3.213509 10.525274 13.038942 3.951971 
-0.044823 -0.765924 -0.162571 -81.193719 83.865143 -79.486924 -0.000000 -0.000000 -0.000000 1.749561 1.172915 -0.560676 3.974049 -0.063939 1.620968 0.000000 0.000000 0.000000 3.912157 -0.456827 2.491752 -1.746684 -11.425704 -6.220905 2.383731 0.078805 0.377688 -11.957190 2.729518 -4.268790 -82.762098 -14.520413 -19.433918 -2.360793 23.054970 0.538384 3.715469 -0.272625 2.155509 14.867259 10.233983 5.255387 45.446642 20.779744 -26.113693 -172.813626 84.296482 -168.228145 0.000000 -0.000000 -0.000000 1.668411 20.344719 -19.129280 -6.735198 -22.793690 7.778795 0.000000 0.000000 -0.000000 -4.881140 -28.361727 -3.269788 9.492952 12.096874 4.284886 
0.037022 -0.827513 -0.161909 -72.540555 83.659635 -70.339962 -0.000000 -0.000000 -0.000000 3.065638 2.129476 -0.681499 3.331351 -0.099177 1.479774 0.000000 0.000000 0.000000 3.379267 -0.398385 2.501764 -2.082646 -12.097336 -6.156234 2.054469 0.022703 0.571538 -11.512143 2.733921 -3.445764 -81.834635 -14.980945 -16.950909 -2.286816 22.180834 0.610798 3.206759 -0.343313 2.067244 14.794256 9.974252 6.078350 48.665413 19.025861 -21.669862 -84.504048 88.892631 -80.087747 0.000000 -0.000000 -0.000000 1.627200 19.886535 -19.375783 -6.556362 -22.403379 7.245813 0.000000 0.000000 -0.000000 -4.348041 -29.808732 -3.389880 8.250956 10.524656 3.960287 
0.123423 -0.894307 -0.182158 -61.496136 83.113750 -58.730191 -0.000000 -0.000000 -0.000000 3.551206 3.110734 -0.903998 2.835043 -0.059719 1.439297 0.000000 0.000000 0.000000 3.024392 -0.305330 2.358016 -2.575353 -12.735418 -6.063587 1.804345 0.031899 0.671332 -11.110183 2.239569 -2.393625 -81.381548 -14.808666 -14.709170 -2.246465 19.918055 0.671326 2.880322 -0.282287 1.941729 14.842170 10.030807 6.631883 51.777689 16.980922 -17.754109 -10.429262 81.531025 -6.152589 0.000000 -0.000000 -0.000000 1.585868 19.257785 -19.768326 -6.359787 -21.928846 6.810653 0.000000 0.000000 -0.000000 -3.608471 -29.736904 -3.778638 7.074451 9.066956 3.791471 
0.217143 -0.962971 -0.216121 -55.837848 82.641982 -52.653288 -0.000000 -0.000000 -0.000000 3.559128 4.092604 -1.075113 2.620927 0.029657 1.410978 0.000000 0.000000 0.000000 2.840457 -0.172783 2.267095 -3.118919 -13.313385 -5.796979 1.699573 0.103143 0.706642 -10.852365 2.395397 -1.955586 -81.179506 -14.423565 -12.775323 -2.232430 17.513534 0.739385 2.749105 -0.145321 1.799178 14.608472 10.298089 6.723271 53.695928 14.700096 -14.903812 -6.942652 73.578744 -2.665364 0.000000 -0.000000 -0.000000 1.612897 18.686314 -20.059039 -6.096977 -21.238004 6.442354 0.000000 0.000000 -0.000000 -3.032833 -29.598353 -4.113660 6.078597 8.003598 3.704697 
0.314746 -1.024121 -0.257631 -56.992003 82.766877 -53.559911 -0.000000 -0.000000 -0.000000 3.451900 4.813023 -1.095182 2.555007 0.146351 1.409051 0.000000 0.000000 0.000000 2.765577 -0.041366 2.233264 -3.430077 -13.696306 -5.398190 1.676747 0.200731 0.757433 -10.609161 2.565721 -1.749570 -81.072355 -14.094440 -11.077593 -2.217906 15.193323 0.791529 2.729540 0.032121 1.722243 14.300748 10.770178 6.600036 54.485915 13.012671 -12.710932 -6.149782 68.147928 -1.815659 0.000000 -0.000000 -0.000000 1.657818 18.247808 -20.133511 -5.802730 -20.638650 6.187052 0.000000 0.000000 -0.000000 -2.796240 -29.662113 -4.158760 5.469291 7.334489 3.458507 
0.415678 -1.078992 -0.301826 -63.478804 83.317380 -59.935534 -0.000000 -0.000000 -0.000000 3.301328 5.239089 -1.042349 2.548576 0.236230 1.442200 0.000000 0.000000 0.000000 2.745344 0.054541 2.239460 -3.609978 -14.064575 -5.022723 1.686228 0.292470 0.857561 -10.377932 2.567297 -1.589775 -80.798262 -14.017625 -9.443387 -2.163673 13.291499 0.867183 2.743348 0.178681 1.707787 14.173092 11.360668 6.505238 55.032495 11.711950 -10.615522 -6.275344 66.462751 -1.872000 0.000000 -0.000000 -0.000000 1.694107 17.971455 -20.119759 -5.639261 -20.490837 6.080932 0.000000 0.000000 -0.000000 -2.767371 -29.329193 -4.077777 5.243041 6.932845 3.265510 
0.515723 -1.130575 -0.348981 -74.805698 83.986776 -71.182811 -0.000000 -0.000000 -0.000000 3.162557 5.364069 -0.967987 2.543141 0.293664 1.502592 0.000000 0.000000 0.000000 2.737396 0.124846 2.271993 -3.682032 -14.344602 -4.677700 1.690809 0.363787 0.979539 -10.137738 2.432089 -1.428717 -80.238025 -14.275048 -7.708681 -2.095271 11.891214 0.914381 2.739387 0.304998 1.743423 14.224904 11.824971 6.415062 55.362681 11.035954 -9.360597 -6.928791 67.966654 -2.479630 0.000000 -0.000000 -0.000000 1.682001 17.830303 -20.076211 -5.510083 -20.682411 5.879202 0.000000 0.000000 -0.000000 -2.922935 -28.736705 -3.918153 5.272629 6.617770 3.019355 
